<?xml version="1.0" encoding="UTF-8" standalone="no"?>
<!-- Created with Inkscape (http://www.inkscape.org/) -->

<svg
   version="1.1"
   id="svg1"
   width="258"
   height="258"
   viewBox="0 0 258 258"
   sodipodi:docname="ds.png"
   xml:space="preserve"
   inkscape:export-filename="..\..\..\..\React Projects\portfolio\public\netIcon.svg"
   inkscape:export-xdpi="96"
   inkscape:export-ydpi="96"
   xmlns:inkscape="http://www.inkscape.org/namespaces/inkscape"
   xmlns:sodipodi="http://sodipodi.sourceforge.net/DTD/sodipodi-0.dtd"
   xmlns="http://www.w3.org/2000/svg"
   xmlns:svg="http://www.w3.org/2000/svg"><defs
     id="defs1" /><sodipodi:namedview
     id="namedview1"
     pagecolor="#ffffff"
     bordercolor="#000000"
     borderopacity="0.25"
     inkscape:showpageshadow="2"
     inkscape:pageopacity="0.0"
     inkscape:pagecheckerboard="0"
     inkscape:deskcolor="#d1d1d1" /><g
     inkscape:groupmode="layer"
     inkscape:label="Image"
     id="g1"><path
       style="display:none;fill:#000000;fill-opacity:1"
       d="M 56.317609,222.81032 C 39.964856,217.1452 9.3969597,200.86079 2.1492194,193.95323 0.27382945,192.16587 0.42790945,155.8624 2.3695794,142.03034 4.1815594,129.12219 8.0398994,113.02497 12.111,101.38857 16.146,89.855334 26.287587,68.915852 33.372457,57.489719 38.676788,48.935153 39.639582,47.922889 44.52797,45.761011 56.749852,40.355916 70.167819,36.296563 90.486882,31.85701 c 1.724211,-0.376727 2.629674,0.705752 5.426833,6.487765 l 3.357324,6.939936 6.073171,-0.716185 c 7.83083,-0.923459 39.28486,-0.927292 47.09144,-0.0057 l 6.01826,0.710446 3.33786,-6.952863 c 2.83482,-5.905024 3.66095,-6.881905 5.48173,-6.482027 20.68005,4.541735 39.11864,10.164744 47.71904,14.552339 8.68563,4.431077 28.44745,43.704127 35.33987,70.231589 5.45054,20.97801 7.64242,43.01022 6.58497,66.19063 l -0.5,10.96056 -8.5,5.80773 c -10.82653,7.39737 -33.61088,18.80523 -46.40023,23.23206 l -9.90024,3.42681 -2.02131,-2.56968 c -2.59694,-3.3015 -11.67822,-18.39543 -11.67822,-19.4103 0,-0.42515 1.0125,-1.07931 2.25,-1.45368 3.7689,-1.14018 18.75,-8.73265 18.75,-9.50257 0,-0.39683 -1.12066,-1.4558 -2.49036,-2.35326 -2.34603,-1.53718 -2.82418,-1.4934 -8.25,0.75531 -18.21815,7.55044 -32.63676,10.61855 -53.25964,11.33304 -23.8564,0.82651 -42.81651,-2.27938 -62.598491,-10.25439 -8.046453,-3.24388 -8.615539,-3.3381 -10.944652,-1.81201 -1.351274,0.88539 -2.456862,1.93448 -2.456862,2.33131 0,0.76992 14.981104,8.36239 18.75,9.50257 1.2375,0.37437 2.25,1.02853 2.25,1.45368 0,1.01487 -9.081282,16.1088 -11.678218,19.41027 l -2.021314,2.56968 z m 39.322017,-61.00686 c 8.787124,-4.37881 13.555804,-12.68006 13.503174,-23.50614 -0.11256,-23.15158 -26.061549,-34.31205 -40.120845,-17.25569 -8.951089,10.85923 -7.781224,28.24135 2.508785,37.2761 7.597262,6.67049 15.441877,7.80468 24.108886,3.48573 z m 87.505004,-1.04323 c 5.75974,-4.04809 9.55332,-9.80074 10.98505,-16.65789 4.90162,-23.47581 -19.54679,-40.65077 -36.55482,-25.67971 -10.79975,9.50633 -12.14285,25.5604 -3.12727,37.38044 6.62636,8.6876 20.08211,11.01196 28.69704,4.95716 z"
       id="path1" /><path
       style="display:none;fill:#000000;fill-opacity:1;stroke-width:0.420952"
       d="M 26.213382,225.53055 C 26.531138,225.1403 43.714519,205.48707 64.398678,181.8567 85.082837,158.22633 102.10047,138.66566 102.21565,138.38855 102.33083,138.11143 84.352628,114.2434 62.264093,85.348494 40.175555,56.453579 21.962811,32.575501 21.791318,32.286096 21.54289,31.866843 28.392801,31.764071 55.496302,31.78041 l 34.01678,0.0205 23.349798,30.923887 c 12.84239,17.008137 23.48213,30.874566 23.64385,30.814286 0.16175,-0.06028 12.43463,-13.985256 27.27309,-30.944391 L 190.75884,31.7599 h 16.48723 16.48723 l -0.8578,0.947143 c -0.47181,0.520929 -16.15855,18.469303 -34.85943,39.885276 -18.70088,21.415978 -34.53753,39.508711 -35.19253,40.206071 l -1.19092,1.26796 42.29125,55.91513 c 23.26019,30.75331 42.29127,55.99241 42.29127,56.08687 0,0.0944 -14.91752,0.16411 -33.15004,0.1548 l -33.15004,-0.017 -25.86082,-33.86975 c -14.22346,-18.62835 -25.96804,-33.8571 -26.09908,-33.84165 -0.13103,0.0155 -13.5472,15.26447 -29.813711,33.8867 L 58.565978,226.2401 H 42.100812 c -15.389188,0 -16.427412,-0.0464 -15.88743,-0.70955 z M 189.37236,195.75206 c -4.45035,-5.88678 -31.01245,-41.02065 -59.02685,-78.07525 l -50.935294,-67.372017 -9.80807,-0.01148 c -8.107216,-0.0095 -9.749692,0.08676 -9.471438,0.555041 0.185147,0.311588 27.02522,35.450622 59.644602,78.086736 l 59.30797,77.52022 h 9.19034 9.19034 z"
       id="path2" /><path
       style="display:inline;fill:#000000;fill-opacity:1;stroke-width:0.694771"
       d="M 115.02456,257.27513 C 101.4177,255.85418 84.4728,250.8477 71.94782,244.54786 58.427831,237.74754 48.58639,230.63146 37.841247,219.88632 27.336231,209.38129 19.614808,198.66438 12.937682,185.32148 -5.7549136,147.9681 -3.827139,99.777145 17.802873,63.700291 49.475016,10.874117 111.68249,-12.528465 169.52654,6.6215335 c 43.29426,14.3331155 76.4959,51.6234425 85.72602,96.2829565 5.74219,27.78337 1.91613,57.32032 -10.72161,82.76989 -7.35077,14.80284 -15.92262,26.37302 -27.65612,37.32997 -9.77006,9.12344 -17.6861,14.66036 -29.64939,20.73845 -22.90938,11.63938 -47.03243,16.16067 -72.20088,13.53233 z M 98.559466,232.90725 c -6.433296,-8.997 -8.946221,-13.07763 -13.917211,-22.59955 -2.543704,-4.87244 -4.695048,-8.95507 -4.780762,-9.0725 -0.650076,-0.89057 -26.709116,10.42636 -26.709116,11.59924 0,1.70393 16.049492,12.92313 24.821825,17.3514 7.840597,3.95792 23.499398,9.54344 24.428888,8.71383 0.14813,-0.13222 -1.5815,-2.82881 -3.843624,-5.99242 z m 71.314464,1.74234 c 6.50934,-2.57573 14.89146,-6.84636 20.49574,-10.44242 6.05314,-3.88408 14.24282,-10.42187 14.24282,-11.36999 0,-1.27683 -26.04784,-12.55756 -26.73409,-11.57792 -0.073,0.10419 -2.38115,4.51777 -5.12925,9.80793 -5.02443,9.67215 -7.87653,14.27993 -14.09616,22.77336 -1.85309,2.53055 -3.36925,4.77732 -3.36925,4.99283 0,0.57179 9.34179,-2.10701 14.59019,-4.18379 z m -48.82554,-40.91912 c -0.6828,-0.6828 -24.47895,2.6294 -25.38257,3.53301 -0.493301,0.4933 7.87733,15.32681 12.75142,22.59667 2.43386,3.63018 6.23648,8.77659 8.45026,11.43645 l 4.02506,4.83613 0.18404,-21.095 c 0.10122,-11.60227 0.0886,-21.19053 -0.0282,-21.30726 z m 19.9904,37.71899 c 7.45555,-9.22189 22.13797,-33.10826 21.03121,-34.21502 -0.43656,-0.43656 -10.80127,-2.25808 -15.4709,-2.71889 -2.29275,-0.22625 -5.49738,-0.57573 -7.12141,-0.77661 l -2.95277,-0.36523 v 21.23309 c 0,11.67819 0.23447,21.21144 0.52107,21.18498 0.28659,-0.0265 2.08335,-1.98051 3.9928,-4.34232 z M 58.710547,192.5716 c 4.012304,-1.71242 8.858332,-3.67192 10.768953,-4.35442 1.91062,-0.68252 3.737451,-1.4685 4.059631,-1.74663 0.322172,-0.27811 -0.195592,-3.11842 -1.150597,-6.31178 -3.565072,-11.92103 -6.023422,-25.06995 -7.093203,-37.9393 l -0.476468,-5.73186 H 40.240091 15.661317 l 0.384604,3.30016 c 2.523027,21.64918 10.357858,41.77598 22.319809,57.33705 l 3.08511,4.01336 4.982302,-2.72655 c 2.740274,-1.49961 8.265101,-4.12762 12.277405,-5.84003 z m 162.400503,2.44531 c 10.95329,-15.3295 18.59757,-35.55838 20.60798,-54.53437 l 0.42324,-3.99493 h -24.54072 -24.54071 l -0.80883,8.51095 c -1.10886,11.66797 -2.65016,20.15188 -5.52219,30.39624 -1.33911,4.77655 -2.47488,9.25482 -2.52391,9.95172 -0.07,0.9945 1.39944,1.81654 6.83064,3.82124 3.8059,1.40478 10.99678,4.61846 15.97974,7.14148 4.98295,2.52303 9.21624,4.63107 9.4073,4.68455 0.19106,0.0535 2.30042,-2.63612 4.68746,-5.97688 z M 92.752159,181.64836 c 3.426924,-0.98283 21.610401,-3.47448 25.355931,-3.47448 h 3.13186 V 157.33074 136.48761 H 100.79441 80.348853 l 0.347219,3.99493 c 0.678382,7.80504 2.448444,19.35967 3.804971,24.83807 2.117155,8.55025 4.768575,17.0219 5.327436,17.0219 0.27683,0 1.592492,-0.31237 2.92368,-0.69415 z m 77.226871,-3.85096 c 3.1236,-9.79545 6.20478,-25.53581 7.16838,-36.62009 l 0.4077,-4.6897 h -20.5151 -20.51509 v 20.84313 20.84314 h 3.13185 c 3.31917,0 21.25077,2.42207 25.35376,3.42458 1.33743,0.3268 2.70547,0.53663 3.04009,0.46631 0.33461,-0.0703 1.20239,-1.99064 1.92841,-4.26737 z M 65.293184,115.81817 c 1.041372,-12.50932 3.50059,-25.737404 7.048676,-37.914748 0.982184,-3.37094 1.6779,-6.228082 1.546025,-6.349201 C 73.756017,71.433095 70.045168,69.930276 65.641542,68.214622 61.237923,66.498969 54.09712,63.32096 49.773101,61.152377 45.449082,58.983803 41.617287,57.307501 41.258,57.427259 39.724508,57.938422 31.342121,70.790924 27.531191,78.474224 21.322244,90.992215 18.265132,101.68661 16.061596,118.59725 l -0.3395,2.60539 h 24.561418 24.561418 z m 55.946766,-15.06445 c 0,-18.883864 -0.0931,-20.474668 -1.21585,-20.785244 -0.66872,-0.184976 -4.02968,-0.537614 -7.46879,-0.783633 -3.43912,-0.246025 -10.08214,-1.150381 -14.762267,-2.009673 l -8.509321,-1.562353 -1.70608,5.599334 C 84.21875,92.235995 81.640378,105.93276 80.736195,117.5551 l -0.283765,3.64754 h 20.39376 20.39376 z m 55.87521,16.10661 c -1.06167,-12.13342 -3.6608,-25.583175 -6.96725,-36.053432 l -1.6768,-5.30981 -2.59876,0.607974 c -4.75421,1.112246 -15.03378,2.639519 -20.66279,3.069943 -3.057,0.233756 -6.26163,0.568476 -7.12141,0.743816 l -1.56323,0.318809 v 20.48251 20.4825 h 20.48509 20.4851 z m 64.64057,0.69477 c -0.84261,-7.2786 -3.22908,-18.375083 -5.26709,-24.490681 -3.66927,-11.010636 -11.77778,-26.142884 -18.24211,-34.043787 l -1.70534,-2.084313 -6.07288,3.041764 c -8.6914,4.353317 -15.14285,7.211009 -21.31449,9.441322 -2.96145,1.070218 -5.38207,2.138457 -5.37916,2.373866 0.003,0.235409 0.63848,2.460219 1.41235,4.944025 3.51363,11.277311 6.35127,26.190774 7.30386,38.386104 l 0.47486,6.07924 h 24.60612 24.60614 z M 121.23995,43.040895 c 0,-11.654785 -0.1211,-21.190519 -0.26913,-21.190519 -0.64915,0 -8.81248,10.684232 -13.33356,17.451081 -6.41193,9.59695 -12.504926,21.364977 -11.270214,21.76734 2.401872,0.782722 17.460564,2.84629 22.267514,3.051435 l 2.60539,0.111184 z m 33.99333,19.19204 c 3.60243,-0.644949 6.65223,-1.479731 6.77735,-1.855074 0.31934,-0.958034 -7.39988,-14.720158 -12.45225,-22.200364 -4.06122,-6.012771 -12.10361,-16.327121 -12.7307,-16.327121 -0.16652,0 -0.30276,9.568929 -0.30276,21.264276 v 21.264285 l 6.07924,-0.48668 c 3.34359,-0.267675 9.02669,-1.014366 12.62912,-1.659322 z M 82.588782,51.551842 c 2.962963,-6.474225 10.260832,-18.688531 15.670619,-26.227611 2.978109,-4.150298 3.938059,-5.969904 3.229759,-6.122052 -1.731971,-0.37205 -15.326635,4.522794 -22.695434,8.171628 -9.880236,4.892432 -25.460277,15.615432 -25.601607,17.620368 -0.08154,1.156642 23.246368,11.448162 26.205413,11.560979 0.487305,0.01855 1.923369,-2.232912 3.19125,-5.003312 z m 103.121528,2.517885 c 7.42427,-2.773442 18.90367,-8.315979 18.89959,-9.125179 -0.004,-0.766722 -7.63001,-6.785156 -14.00212,-11.050245 -7.27139,-4.867018 -16.46243,-9.291084 -25.68524,-12.36348 -10.04647,-3.346782 -10.37444,-3.292042 -7.11712,1.188017 5.82007,8.00482 11.33686,16.911709 15.58873,25.168043 2.4583,4.773599 4.71778,8.684389 5.02106,8.690656 0.30329,0.0063 3.58608,-1.122243 7.2951,-2.507812 z"
       id="path4" /></g></svg>
